<svg width="598" height="407" viewBox="0 0 598 407" fill="none" xmlns="http://www.w3.org/2000/svg">
<g clip-path="url(#clip0_337_19)">
<path d="M536.47 397.344C523.058 407.015 505.677 407.501 488.877 406.313C486.531 406.147 484.202 405.953 481.894 405.743C481.88 405.739 481.862 405.741 481.847 405.737C481.736 405.726 481.625 405.716 481.519 405.709C481.043 405.665 480.566 405.62 480.094 405.575L480.206 405.788L480.556 406.449C480.43 406.228 480.304 406.011 480.179 405.79C480.142 405.724 480.1 405.658 480.063 405.591C475.711 398.01 471.395 390.151 470.294 381.494C469.155 372.508 472.354 362.334 480.254 357.918C481.29 357.34 482.388 356.88 483.526 356.546C483.998 356.403 484.477 356.286 484.961 356.183C487.924 355.524 491.009 355.668 493.898 356.598C496.788 357.528 499.377 359.212 501.401 361.476C503.425 363.741 504.809 366.504 505.413 369.481C506.016 372.459 505.816 375.543 504.833 378.418C511.531 371.543 510.282 360.39 507.971 351.069C505.656 341.748 502.854 331.376 507.562 323.004C510.18 318.344 514.783 315.452 519.948 314.288C520.106 314.254 520.265 314.219 520.424 314.19C526.578 312.942 532.976 314.064 538.34 317.332C548.217 323.562 553.29 335.375 554.936 346.946C557.589 365.566 551.718 386.347 536.47 397.344Z" fill="#F25042"/>
<path d="M532.141 367.494C531.751 371.602 530.766 375.63 529.215 379.453C527.786 382.835 525.859 385.985 523.499 388.797C518.594 394.545 512.381 399.029 505.383 401.873C500.09 404.043 494.544 405.535 488.878 406.312C486.532 406.147 484.202 405.952 481.895 405.742C481.881 405.739 481.862 405.74 481.848 405.737C481.737 405.726 481.626 405.715 481.52 405.709C481.044 405.664 480.567 405.62 480.095 405.575L480.207 405.788L480.557 406.449C480.431 406.227 480.305 406.011 480.18 405.79C480.143 405.723 480.101 405.657 480.064 405.591C484.313 401.354 487.485 396.16 489.314 390.443C491.144 384.727 491.578 378.654 490.58 372.735C489.536 366.858 487.119 361.311 483.527 356.546C483.999 356.402 484.478 356.286 484.962 356.182C486.328 358.051 487.525 360.037 488.541 362.116C492.187 369.533 493.35 377.927 491.858 386.057C490.472 393.414 487.017 400.222 481.9 405.682C482.348 405.651 482.8 405.614 483.243 405.574C491.629 404.862 499.998 403.058 507.605 399.361C514.107 396.278 519.751 391.642 524.042 385.861C528.648 379.502 530.678 371.852 531.027 364.077C531.295 355.701 530.418 347.328 528.42 339.189C526.482 330.891 523.538 322.861 519.651 315.279C519.564 315.107 519.547 314.908 519.602 314.723C519.658 314.539 519.782 314.383 519.949 314.287C520.088 314.193 520.259 314.158 520.424 314.189C520.505 314.211 520.58 314.25 520.644 314.305C520.707 314.359 520.758 314.427 520.791 314.504C521.271 315.441 521.741 316.378 522.194 317.326C525.964 325.22 528.739 333.553 530.456 342.132C532.123 350.409 533.013 359.066 532.141 367.494Z" fill="#EADDCF"/>
<path d="M24.9494 129.364C24.5501 129.363 24.1543 129.288 23.7824 129.143C23.1809 128.912 22.664 128.503 22.3002 127.97C21.9364 127.438 21.7431 126.807 21.7458 126.162V92.7548C21.7446 91.624 21.2953 90.5399 20.4965 89.7403C19.6977 88.9406 18.6146 88.4909 17.485 88.4895H10.6506C7.82684 88.4864 5.11966 87.3621 3.12298 85.3635C1.12629 83.3648 0.00316471 80.655 0 77.8285V10.661C0.00316658 7.83453 1.12629 5.1247 3.12298 3.12605C5.11966 1.1274 7.82684 0.00316782 10.6506 0H251.719C254.543 0.00317157 257.25 1.1274 259.247 3.12605C261.243 5.1247 262.367 7.83453 262.37 10.661V77.8285C262.367 80.655 261.243 83.3648 259.247 85.3635C257.25 87.3621 254.543 88.4863 251.719 88.4895H65.6485C65.0579 88.4902 64.4738 88.6135 63.9332 88.8515C63.3925 89.0896 62.9071 89.4373 62.5075 89.8727L27.2959 128.323C26.9986 128.651 26.6363 128.912 26.2322 129.091C25.8282 129.27 25.3912 129.363 24.9494 129.364ZM10.6506 1.42059C8.20311 1.42336 5.85668 2.3978 4.12606 4.13012C2.39544 5.86244 1.42196 8.21117 1.4192 10.661V77.8285C1.42196 80.2783 2.39544 82.6271 4.12606 84.3594C5.85668 86.0917 8.20311 87.0662 10.6506 87.0689H17.485C18.9909 87.0706 20.4347 87.6702 21.4996 88.7362C22.5644 89.8021 23.1634 91.2473 23.165 92.7548V126.162C23.1651 126.52 23.2731 126.87 23.4751 127.166C23.6771 127.461 23.9636 127.689 24.2971 127.819C24.6305 127.949 24.9954 127.975 25.3438 127.893C25.6922 127.812 26.008 127.627 26.2498 127.363L61.4614 88.9126C61.9941 88.3323 62.6412 87.8688 63.3619 87.5515C64.0826 87.2341 64.8612 87.0698 65.6485 87.0689H251.719C254.167 87.0662 256.513 86.0917 258.244 84.3594C259.974 82.6271 260.948 80.2783 260.951 77.8285V10.661C260.948 8.21117 259.974 5.86244 258.244 4.13012C256.513 2.3978 254.167 1.42336 251.719 1.42059H10.6506Z" fill="#EADDCF"/>
<path d="M26.1244 30.2514C31.2715 30.2514 35.444 26.0748 35.444 20.9226C35.444 15.7704 31.2715 11.5938 26.1244 11.5938C20.9772 11.5938 16.8047 15.7704 16.8047 20.9226C16.8047 26.0748 20.9772 30.2514 26.1244 30.2514Z" fill="#EADDCF"/>
<path d="M240.846 72.5421H21.5233C20.8701 72.5428 20.2231 72.4147 19.6194 72.165C19.0156 71.9154 18.467 71.549 18.0048 71.0869C17.5426 70.6248 17.176 70.0761 16.9258 69.4721C16.6756 68.868 16.5469 68.2206 16.5469 67.5667C16.5469 66.9128 16.6756 66.2654 16.9258 65.6613C17.176 65.0573 17.5426 64.5086 18.0048 64.0465C18.467 63.5844 19.0156 63.218 19.6194 62.9683C20.2231 62.7186 20.8701 62.5905 21.5233 62.5913H240.846C241.499 62.5905 242.146 62.7186 242.75 62.9683C243.354 63.218 243.902 63.5844 244.364 64.0465C244.827 64.5086 245.193 65.0573 245.443 65.6613C245.694 66.2654 245.822 66.9128 245.822 67.5667C245.822 68.2206 245.694 68.868 245.443 69.4721C245.193 70.0761 244.827 70.6248 244.364 71.0869C243.902 71.549 243.354 71.9154 242.75 72.165C242.146 72.4147 241.499 72.5428 240.846 72.5421Z" fill="#EADDCF"/>
<path d="M169.395 51.397H21.5233C20.8701 51.3978 20.2231 51.2697 19.6194 51.02C19.0156 50.7703 18.467 50.404 18.0048 49.9419C17.5426 49.4798 17.176 48.9311 16.9258 48.327C16.6756 47.723 16.5469 47.0755 16.5469 46.4217C16.5469 45.7678 16.6756 45.1203 16.9258 44.5163C17.176 43.9123 17.5426 43.3635 18.0048 42.9014C18.467 42.4394 19.0156 42.073 19.6194 41.8233C20.2231 41.5736 20.8701 41.4455 21.5233 41.4463H169.395C170.048 41.4455 170.695 41.5736 171.299 41.8233C171.903 42.073 172.452 42.4394 172.914 42.9014C173.376 43.3635 173.743 43.9123 173.993 44.5163C174.243 45.1203 174.372 45.7678 174.372 46.4217C174.372 47.0755 174.243 47.723 173.993 48.327C173.743 48.9311 173.376 49.4798 172.914 49.9419C172.452 50.404 171.903 50.7703 171.299 51.02C170.695 51.2697 170.048 51.3978 169.395 51.397Z" fill="#EADDCF"/>
<path d="M24.9494 366.316C24.5501 366.315 24.1543 366.24 23.7824 366.095C23.1809 365.864 22.664 365.455 22.3003 364.922C21.9365 364.39 21.7431 363.759 21.7458 363.114V329.707C21.7446 328.576 21.2953 327.492 20.4965 326.692C19.6977 325.893 18.6146 325.443 17.485 325.442H10.6506C7.82684 325.438 5.11967 324.314 3.12299 322.316C1.1263 320.317 0.00317222 317.607 0 314.781V247.613C0.00316658 244.787 1.12629 242.077 3.12298 240.078C5.11966 238.08 7.82684 236.955 10.6506 236.952H251.719C254.543 236.955 257.25 238.08 259.247 240.078C261.243 242.077 262.367 244.787 262.37 247.613V314.781C262.367 317.607 261.243 320.317 259.247 322.316C257.25 324.314 254.543 325.438 251.719 325.442H65.6485C65.0579 325.442 64.4738 325.566 63.9332 325.804C63.3925 326.042 62.9071 326.389 62.5075 326.825L27.2959 365.275C26.9986 365.603 26.6363 365.864 26.2322 366.043C25.8282 366.222 25.3912 366.315 24.9494 366.316ZM10.6506 238.373C8.20311 238.375 5.85668 239.35 4.12606 241.082C2.39544 242.815 1.42196 245.163 1.4192 247.613V314.781C1.42196 317.23 2.39544 319.579 4.12606 321.312C5.85668 323.044 8.20311 324.018 10.6506 324.021H17.485C18.9909 324.023 20.4347 324.622 21.4996 325.688C22.5644 326.754 23.1634 328.199 23.165 329.707V363.114C23.1651 363.472 23.2731 363.822 23.4751 364.118C23.6771 364.413 23.9636 364.641 24.2971 364.771C24.6305 364.901 24.9954 364.927 25.3438 364.845C25.6922 364.764 26.008 364.579 26.2498 364.315L61.4614 325.865C61.9941 325.284 62.6412 324.821 63.3619 324.504C64.0826 324.186 64.8612 324.022 65.6485 324.021H251.719C254.167 324.018 256.513 323.044 258.244 321.312C259.974 319.579 260.948 317.23 260.951 314.781V247.613C260.948 245.163 259.974 242.815 258.244 241.082C256.513 239.35 254.167 238.376 251.719 238.373L10.6506 238.373Z" fill="#EADDCF"/>
<path d="M380.944 243.175C380.502 243.175 380.065 243.082 379.661 242.903C379.257 242.724 378.895 242.463 378.597 242.135L343.386 203.685C342.986 203.249 342.501 202.902 341.96 202.664C341.419 202.425 340.835 202.302 340.245 202.302H154.174C151.35 202.298 148.643 201.174 146.646 199.175C144.65 197.177 143.527 194.467 143.523 191.64V124.473C143.527 121.647 144.65 118.937 146.646 116.938C148.643 114.939 151.35 113.815 154.174 113.812H395.243C398.066 113.815 400.773 114.939 402.77 116.938C404.767 118.937 405.89 121.647 405.893 124.473V191.64C405.89 194.467 404.767 197.177 402.77 199.175C400.773 201.174 398.066 202.298 395.243 202.302H388.408C387.278 202.303 386.195 202.753 385.397 203.552C384.598 204.352 384.149 205.436 384.147 206.567V239.974C384.15 240.619 383.957 241.25 383.593 241.782C383.229 242.314 382.712 242.723 382.111 242.955C381.739 243.1 381.343 243.175 380.944 243.175ZM154.174 115.233C151.727 115.235 149.38 116.21 147.649 117.942C145.919 119.674 144.945 122.023 144.943 124.473V191.64C144.945 194.09 145.919 196.439 147.649 198.171C149.38 199.904 151.727 200.878 154.174 200.881H340.245C341.032 200.882 341.811 201.046 342.531 201.363C343.252 201.681 343.899 202.144 344.432 202.725L379.643 241.175C379.885 241.439 380.201 241.624 380.549 241.705C380.898 241.787 381.263 241.761 381.596 241.631C381.929 241.501 382.216 241.273 382.418 240.978C382.62 240.682 382.728 240.332 382.728 239.974V206.567C382.73 205.059 383.329 203.614 384.394 202.548C385.458 201.482 386.902 200.883 388.408 200.881H395.243C397.69 200.878 400.036 199.904 401.767 198.171C403.498 196.439 404.471 194.09 404.474 191.64V124.473C404.471 122.023 403.498 119.674 401.767 117.942C400.036 116.21 397.69 115.235 395.243 115.233L154.174 115.233Z" fill="#FFFFFE"/>
<path d="M26.1244 267.204C31.2715 267.204 35.444 263.027 35.444 257.875C35.444 252.723 31.2715 248.546 26.1244 248.546C20.9772 248.546 16.8047 252.723 16.8047 257.875C16.8047 263.027 20.9772 267.204 26.1244 267.204Z" fill="#EADDCF"/>
<path d="M240.846 309.495H21.5233C20.8701 309.495 20.2231 309.367 19.6194 309.118C19.0156 308.868 18.467 308.502 18.0048 308.04C17.5426 307.577 17.176 307.029 16.9258 306.425C16.6756 305.821 16.5469 305.173 16.5469 304.519C16.5469 303.865 16.6756 303.218 16.9258 302.614C17.176 302.01 17.5426 301.461 18.0048 300.999C18.467 300.537 19.0156 300.171 19.6194 299.921C20.2231 299.671 20.8701 299.543 21.5233 299.544H240.846C242.164 299.544 243.428 300.068 244.361 301.001C245.293 301.934 245.816 303.2 245.816 304.519C245.816 305.839 245.293 307.104 244.361 308.037C243.428 308.971 242.164 309.495 240.846 309.495Z" fill="#EADDCF"/>
<path d="M169.395 288.349H21.5233C20.8701 288.35 20.2231 288.222 19.6194 287.972C19.0156 287.723 18.467 287.356 18.0048 286.894C17.5426 286.432 17.176 285.883 16.9258 285.279C16.6756 284.675 16.5469 284.028 16.5469 283.374C16.5469 282.72 16.6756 282.072 16.9258 281.468C17.176 280.864 17.5426 280.316 18.0048 279.854C18.467 279.392 19.0156 279.025 19.6194 278.775C20.2231 278.526 20.8701 278.398 21.5233 278.398H169.395C170.048 278.398 170.695 278.526 171.299 278.775C171.903 279.025 172.452 279.392 172.914 279.854C173.376 280.316 173.743 280.864 173.993 281.468C174.243 282.072 174.372 282.72 174.372 283.374C174.372 284.028 174.243 284.675 173.993 285.279C173.743 285.883 173.376 286.432 172.914 286.894C172.452 287.356 171.903 287.723 171.299 287.972C170.695 288.222 170.048 288.35 169.395 288.349Z" fill="#EADDCF"/>
<path d="M169.648 143.441C174.795 143.441 178.967 139.265 178.967 134.113C178.967 128.96 174.795 124.784 169.648 124.784C164.501 124.784 160.328 128.96 160.328 134.113C160.328 139.265 164.501 143.441 169.648 143.441Z" fill="#FFFFFE"/>
<path d="M384.369 185.732H165.047C163.728 185.732 162.464 185.208 161.532 184.275C160.6 183.342 160.076 182.076 160.076 180.757C160.076 179.437 160.6 178.172 161.532 177.238C162.464 176.305 163.728 175.781 165.047 175.781H384.369C385.688 175.781 386.952 176.305 387.884 177.238C388.816 178.172 389.34 179.437 389.34 180.757C389.34 182.076 388.816 183.342 387.884 184.275C386.952 185.208 385.688 185.732 384.369 185.732Z" fill="#FFFFFE"/>
<path d="M312.919 164.587H165.047C164.393 164.587 163.747 164.459 163.143 164.21C162.539 163.96 161.99 163.593 161.528 163.131C161.066 162.669 160.699 162.121 160.449 161.517C160.199 160.912 160.07 160.265 160.07 159.611C160.07 158.957 160.199 158.31 160.449 157.706C160.699 157.102 161.066 156.553 161.528 156.091C161.99 155.629 162.539 155.262 163.143 155.013C163.747 154.763 164.393 154.635 165.047 154.636H312.919C313.572 154.635 314.219 154.763 314.823 155.013C315.426 155.262 315.975 155.629 316.437 156.091C316.899 156.553 317.266 157.102 317.516 157.706C317.766 158.31 317.895 158.957 317.895 159.611C317.895 160.265 317.766 160.912 317.516 161.517C317.266 162.121 316.899 162.669 316.437 163.131C315.975 163.593 315.426 163.96 314.823 164.21C314.219 164.459 313.572 164.587 312.919 164.587Z" fill="#FFFFFE"/>
<path d="M384.274 255.962C384.487 254.939 384.921 253.976 385.546 253.14C386.171 252.304 386.972 251.616 387.892 251.123C388.811 250.63 389.828 250.345 390.869 250.288C391.911 250.231 392.952 250.403 393.92 250.792L410.567 231.646L414.103 244.352L397.753 260.586C396.991 262.17 395.676 263.42 394.056 264.098C392.435 264.777 390.623 264.837 388.961 264.267C387.3 263.696 385.905 262.536 385.041 261.006C384.177 259.475 383.904 257.68 384.274 255.962Z" fill="#FFB8B8"/>
<path d="M475.637 166.111C485.263 166.111 493.066 158.3 493.066 148.665C493.066 139.03 485.263 131.22 475.637 131.22C466.012 131.22 458.209 139.03 458.209 148.665C458.209 158.3 466.012 166.111 475.637 166.111Z" fill="#FFB8B8"/>
<path d="M455.162 388.797L446.463 388.797L442.324 355.208L455.164 355.209L455.162 388.797Z" fill="#FFB8B8"/>
<path d="M457.381 397.239L429.33 397.238V396.882C429.33 395.447 429.612 394.026 430.161 392.7C430.71 391.374 431.514 390.169 432.528 389.154C433.542 388.14 434.745 387.335 436.07 386.785C437.395 386.236 438.814 385.954 440.248 385.954H440.249L457.381 385.954L457.381 397.239Z" fill="#020826"/>
<path d="M481.417 398.031L472.719 398.03L471.514 365.244L481.42 364.442L481.417 398.031Z" fill="#FFB8B8"/>
<path d="M483.637 406.472L455.586 406.471V406.116C455.586 404.681 455.868 403.26 456.417 401.934C456.966 400.608 457.77 399.403 458.784 398.388C459.798 397.373 461.001 396.568 462.326 396.019C463.651 395.47 465.07 395.187 466.504 395.187H466.505L483.637 395.188L483.637 406.472Z" fill="#020826"/>
<path d="M478.943 391.901L472.169 391.103C471.4 391.011 470.692 390.643 470.173 390.068C469.655 389.493 469.362 388.749 469.349 387.975L468.079 299.657C468.076 299.407 467.984 299.167 467.821 298.977C467.658 298.788 467.434 298.662 467.188 298.622C466.941 298.581 466.689 298.629 466.474 298.756C466.259 298.883 466.095 299.082 466.012 299.317L456.613 325.882L457.285 375.675C457.297 376.497 456.991 377.291 456.432 377.894C455.873 378.496 455.104 378.859 454.284 378.909L445.44 379.285C444.631 379.331 443.835 379.069 443.21 378.552C442.586 378.035 442.18 377.301 442.073 376.497L437.454 320.17L437.451 320.134L444.46 261.308L497.1 265.12L482.488 389.102C482.395 389.879 482.022 390.595 481.438 391.114C480.854 391.634 480.1 391.922 479.318 391.924C479.193 391.924 479.068 391.916 478.943 391.901Z" fill="#020826"/>
<path d="M444.685 266.523C444.212 266.271 443.811 265.903 443.519 265.453C443.227 265.004 443.053 264.488 443.014 263.953C443.014 263.953 447.747 234.487 449.482 233.934L445.687 202.423C445.232 198.58 445.549 194.684 446.619 190.965C447.689 187.246 449.49 183.779 451.917 180.766C454.255 177.843 457.159 175.425 460.456 173.657C463.753 171.889 467.373 170.808 471.099 170.479C471.629 170.431 472.157 170.395 472.682 170.37C477.173 170.129 481.656 170.977 485.749 172.842C489.842 174.707 493.425 177.534 496.194 181.082C499.065 184.661 501.03 188.881 501.922 193.383C502.814 197.886 502.606 202.537 501.316 206.942L499.188 214.357V266.177C499.186 266.683 499.065 267.181 498.835 267.632C498.606 268.082 498.274 268.473 497.867 268.772C491.238 273.641 483.748 275.363 476.468 275.363C462.694 275.363 449.676 269.198 444.685 266.523Z" fill="#FFFFFE"/>
<path d="M403.819 257.04L394.664 250.187C394.305 249.918 394.006 249.577 393.788 249.185C393.569 248.793 393.435 248.359 393.396 247.912C393.356 247.465 393.41 247.014 393.556 246.59C393.701 246.165 393.935 245.776 394.24 245.448L448.782 186.866C450.533 185.002 452.894 183.828 455.435 183.558C457.977 183.287 460.531 183.938 462.635 185.392L462.635 185.392C463.916 186.287 464.985 187.453 465.765 188.808C466.545 190.163 467.017 191.673 467.147 193.231C467.278 194.789 467.064 196.357 466.52 197.823C465.976 199.289 465.116 200.617 464.001 201.712L407.968 256.762C407.476 257.25 406.837 257.563 406.15 257.654C405.463 257.745 404.765 257.608 404.163 257.265C404.044 257.197 403.929 257.122 403.819 257.04Z" fill="#FFFFFE"/>
<path d="M473.891 249.284C474.291 248.319 474.898 247.455 475.668 246.75C476.438 246.046 477.353 245.519 478.349 245.207C479.344 244.895 480.396 244.806 481.43 244.945C482.464 245.084 483.455 245.448 484.333 246.011L504.263 230.318L505.363 243.462L486.268 256.35C485.224 257.764 483.699 258.745 481.98 259.108C480.262 259.471 478.47 259.191 476.944 258.32C475.419 257.449 474.265 256.048 473.702 254.382C473.14 252.717 473.207 250.903 473.891 249.284Z" fill="#FFB8B8"/>
<path d="M491.73 255.41C491.203 255.246 490.727 254.947 490.351 254.542C489.975 254.137 489.711 253.641 489.585 253.102L487.572 244.639C487.424 244.038 487.457 243.407 487.665 242.824C487.873 242.241 488.248 241.733 488.743 241.362L502.289 226.699L482.364 195.946C480.856 194.087 480.006 191.78 479.947 189.387C479.887 186.993 480.622 184.647 482.036 182.716C483.164 181.177 484.677 179.964 486.424 179.199C488.17 178.434 490.088 178.145 491.982 178.361C493.876 178.577 495.679 179.29 497.21 180.428C498.74 181.567 499.942 183.089 500.695 184.843L519.218 220.933C521.06 224.519 521.519 228.657 520.509 232.56C519.498 236.463 517.089 239.857 513.739 242.096L494.81 254.754C494.23 255.273 493.48 255.561 492.702 255.561C492.372 255.561 492.045 255.51 491.73 255.41Z" fill="#FFFFFE"/>
<path d="M488.551 164.262C488.14 164.508 487.679 164.657 487.201 164.697C486.724 164.736 486.244 164.665 485.798 164.489C485.353 164.313 484.954 164.036 484.632 163.681C484.311 163.326 484.075 162.901 483.944 162.44L483.933 162.396C483.578 160.945 483.858 159.426 483.95 157.934C484.041 156.443 483.887 154.805 482.866 153.714C480.964 151.681 477.605 152.782 474.868 152.28C473.264 151.931 471.843 151.009 470.869 149.686C469.896 148.363 469.438 146.731 469.58 145.094C469.617 144.784 469.676 144.473 469.743 144.163C469.91 143.376 469.893 142.562 469.692 141.783C469.491 141.005 469.113 140.283 468.587 139.675C468.061 139.068 467.402 138.59 466.66 138.281C465.919 137.971 465.116 137.838 464.314 137.891C461.551 138.064 458.573 138.918 456.275 136.882C455.433 136.078 454.845 135.044 454.586 133.908C454.327 132.772 454.408 131.585 454.818 130.495C456.104 126.716 459.783 124.721 463.429 123.616C467.939 122.285 472.687 121.978 477.33 122.715C481.973 123.452 486.394 125.215 490.271 127.877C492.586 129.492 494.751 131.525 495.748 134.168C496.745 136.81 496.289 140.153 494.081 141.913C495.809 143.725 497.031 145.959 497.625 148.393C498.218 150.826 498.163 153.373 497.463 155.778C496.387 159.315 491.18 162.729 488.551 164.262Z" fill="#020826"/>
<path d="M598.001 406.29C598 406.478 597.925 406.658 597.792 406.791C597.66 406.924 597.479 406.999 597.291 407H326.934C326.746 407 326.566 406.925 326.432 406.792C326.299 406.659 326.225 406.478 326.225 406.29C326.225 406.101 326.299 405.921 326.432 405.787C326.566 405.654 326.746 405.579 326.934 405.579H597.291C597.479 405.58 597.66 405.655 597.792 405.788C597.925 405.921 598 406.101 598.001 406.29Z" fill="#FFFFFE"/>
</g>
<defs>
<clipPath id="clip0_337_19">
<rect width="598" height="407" fill="white"/>
</clipPath>
</defs>
</svg>
