<svg width="683" height="600" viewBox="0 0 683 600" fill="none" xmlns="http://www.w3.org/2000/svg">
<g clip-path="url(#clip0)">
<path d="M595.037 578.287V518.828C595.037 518.828 618.208 560.982 595.037 578.287Z" fill="#F25042"/>
<path d="M596.469 578.276L552.67 538.066C552.67 538.066 599.391 549.504 596.469 578.276Z" fill="#F25042"/>
<path d="M87.4993 578.287V518.828C87.4993 518.828 64.3285 560.982 87.4993 578.287Z" fill="#F25042"/>
<path d="M86.0671 578.276L129.866 538.066C129.866 538.066 83.1448 549.504 86.0671 578.276Z" fill="#F25042"/>
<path d="M485.543 137.302H482.368V50.3344C482.368 43.7244 481.067 37.1792 478.537 31.0723C476.008 24.9654 472.3 19.4166 467.626 14.7426C462.953 10.0686 457.404 6.36104 451.297 3.83149C445.191 1.30195 438.646 5.39698e-06 432.036 1.13428e-10H247.79C241.18 -1.40318e-05 234.635 1.30191 228.528 3.83144C222.422 6.36097 216.873 10.0686 212.199 14.7425C207.525 19.4165 203.818 24.9653 201.288 31.0722C198.759 37.179 197.457 43.7243 197.457 50.3343V527.445C197.457 540.794 202.76 553.597 212.199 563.037C221.638 572.476 234.441 577.779 247.79 577.779H432.036C445.385 577.779 458.187 572.476 467.626 563.037C477.065 553.597 482.368 540.794 482.368 527.445V199.207H485.543V137.302Z" fill="#3F3D56"/>
<path d="M434.067 13.0952H410.017C411.123 15.8069 411.545 18.749 411.246 21.6622C410.947 24.5755 409.937 27.3706 408.303 29.8012C406.67 32.2319 404.464 34.2235 401.879 35.6006C399.295 36.9778 396.411 37.6982 393.483 37.6985H287.931C285.002 37.6982 282.119 36.9778 279.534 35.6007C276.95 34.2235 274.744 32.2319 273.11 29.8012C271.477 27.3706 270.466 24.5755 270.167 21.6622C269.868 18.7489 270.291 15.8069 271.397 13.0952H248.934C238.965 13.0952 229.404 17.0555 222.355 24.1048C215.306 31.1541 211.346 40.7151 211.346 50.6843V527.095C211.346 532.031 212.318 536.919 214.207 541.479C216.096 546.04 218.865 550.184 222.355 553.674C225.845 557.165 229.989 559.934 234.549 561.823C239.11 563.712 243.997 564.684 248.934 564.684H434.067C439.003 564.684 443.891 563.712 448.451 561.823C453.012 559.934 457.155 557.165 460.646 553.674C464.136 550.184 466.905 546.04 468.794 541.48C470.683 536.919 471.655 532.031 471.655 527.095V50.6844C471.655 45.7481 470.683 40.8601 468.794 36.2996C466.905 31.7391 464.136 27.5953 460.646 24.1048C457.155 20.6143 453.012 17.8456 448.451 15.9565C443.891 14.0675 439.003 13.0952 434.067 13.0952Z" fill="#FFFFFE"/>
<path d="M429.43 556.504H253.572C233.365 556.504 216.926 541.83 216.926 523.794V500.114C216.926 485.739 230.018 474.043 246.11 474.043H436.892C452.984 474.043 466.076 485.739 466.076 500.114V523.794C466.076 541.83 449.636 556.504 429.43 556.504Z" fill="#EADDCF"/>
<path d="M272.057 158.505H232.83C232.127 158.504 231.454 158.225 230.957 157.728C230.46 157.231 230.181 156.557 230.18 155.854V116.626C230.181 115.923 230.46 115.249 230.957 114.752C231.454 114.255 232.127 113.976 232.83 113.975H272.057C272.76 113.976 273.434 114.255 273.931 114.752C274.428 115.249 274.707 115.923 274.708 116.626V155.854C274.707 156.557 274.428 157.231 273.931 157.728C273.434 158.225 272.76 158.504 272.057 158.505V158.505Z" fill="#8C7851"/>
<path d="M331.429 158.505H292.201C291.499 158.504 290.825 158.225 290.328 157.728C289.831 157.231 289.552 156.557 289.551 155.854V116.626C289.552 115.923 289.831 115.249 290.328 114.752C290.825 114.255 291.499 113.976 292.201 113.975H331.429C332.131 113.976 332.805 114.255 333.302 114.752C333.799 115.249 334.078 115.923 334.079 116.626V155.854C334.078 156.557 333.799 157.231 333.302 157.728C332.805 158.225 332.131 158.504 331.429 158.505V158.505Z" fill="#EADDCF"/>
<path d="M390.8 158.505H351.572C350.87 158.504 350.196 158.225 349.699 157.728C349.202 157.231 348.923 156.557 348.922 155.854V116.626C348.923 115.923 349.202 115.249 349.699 114.752C350.196 114.255 350.87 113.976 351.572 113.975H390.8C391.502 113.976 392.176 114.255 392.673 114.752C393.17 115.249 393.449 115.923 393.45 116.626V155.854C393.449 156.557 393.17 157.231 392.673 157.728C392.176 158.225 391.502 158.504 390.8 158.505V158.505Z" fill="#EADDCF"/>
<path d="M450.171 158.505H410.943C410.241 158.504 409.567 158.225 409.07 157.728C408.573 157.231 408.294 156.557 408.293 155.854V116.626C408.294 115.923 408.573 115.249 409.07 114.752C409.567 114.255 410.241 113.976 410.943 113.975H450.171C450.873 113.976 451.547 114.255 452.044 114.752C452.541 115.249 452.82 115.923 452.821 116.626V155.854C452.82 156.557 452.541 157.231 452.044 157.728C451.547 158.225 450.873 158.504 450.171 158.505V158.505Z" fill="#EADDCF"/>
<path d="M271.917 231.131H232.69C231.987 231.13 231.313 230.851 230.816 230.354C230.319 229.857 230.04 229.183 230.039 228.48V189.252C230.04 188.549 230.319 187.875 230.816 187.378C231.313 186.881 231.987 186.602 232.69 186.601H271.917C272.62 186.602 273.293 186.881 273.79 187.378C274.287 187.875 274.566 188.549 274.567 189.252V228.48C274.566 229.183 274.287 229.857 273.79 230.354C273.293 230.851 272.62 231.13 271.917 231.131Z" fill="#EADDCF"/>
<path d="M331.288 231.131H292.061C291.358 231.13 290.684 230.851 290.187 230.354C289.69 229.857 289.411 229.183 289.41 228.48V189.252C289.411 188.549 289.69 187.875 290.187 187.378C290.684 186.881 291.358 186.602 292.061 186.601H331.288C331.991 186.602 332.664 186.881 333.161 187.378C333.658 187.875 333.938 188.549 333.938 189.252V228.48C333.938 229.183 333.658 229.857 333.161 230.354C332.664 230.851 331.991 231.13 331.288 231.131V231.131Z" fill="#EADDCF"/>
<path d="M390.659 231.131H351.432C350.729 231.13 350.055 230.851 349.558 230.354C349.062 229.857 348.782 229.183 348.781 228.48V189.252C348.782 188.549 349.062 187.875 349.558 187.378C350.055 186.881 350.729 186.602 351.432 186.601H390.659C391.362 186.602 392.035 186.881 392.532 187.378C393.029 187.875 393.309 188.549 393.31 189.252V228.48C393.309 229.183 393.029 229.857 392.532 230.354C392.035 230.851 391.362 231.13 390.659 231.131V231.131Z" fill="#8C7851"/>
<path d="M450.03 231.131H410.803C410.1 231.13 409.426 230.851 408.93 230.354C408.433 229.857 408.153 229.183 408.152 228.48V189.252C408.153 188.549 408.433 187.875 408.93 187.378C409.426 186.881 410.1 186.602 410.803 186.601H450.03C450.733 186.602 451.407 186.881 451.903 187.378C452.4 187.875 452.68 188.549 452.681 189.252V228.48C452.68 229.183 452.4 229.857 451.903 230.354C451.407 230.851 450.733 231.13 450.03 231.131V231.131Z" fill="#8C7851"/>
<path d="M271.776 303.757H232.549C231.846 303.756 231.173 303.477 230.676 302.98C230.179 302.483 229.899 301.809 229.898 301.106V261.878C229.899 261.175 230.179 260.501 230.676 260.004C231.173 259.507 231.846 259.228 232.549 259.227H271.776C272.479 259.228 273.153 259.507 273.649 260.004C274.146 260.501 274.426 261.175 274.427 261.878V301.106C274.426 301.809 274.146 302.483 273.649 302.98C273.153 303.477 272.479 303.756 271.776 303.757V303.757Z" fill="#EADDCF"/>
<path d="M331.147 303.757H291.92C291.217 303.756 290.544 303.477 290.047 302.98C289.55 302.483 289.27 301.809 289.27 301.106V261.878C289.27 261.175 289.55 260.501 290.047 260.004C290.544 259.507 291.217 259.228 291.92 259.227H331.147C331.85 259.228 332.524 259.507 333.021 260.004C333.517 260.501 333.797 261.175 333.798 261.878V301.106C333.797 301.809 333.517 302.483 333.021 302.98C332.524 303.477 331.85 303.756 331.147 303.757V303.757Z" fill="#EADDCF"/>
<path d="M390.518 303.757H351.291C350.588 303.756 349.915 303.477 349.418 302.98C348.921 302.483 348.641 301.809 348.641 301.106V261.878C348.641 261.175 348.921 260.501 349.418 260.004C349.915 259.507 350.588 259.228 351.291 259.227H390.518C391.221 259.228 391.895 259.507 392.392 260.004C392.889 260.501 393.168 261.175 393.169 261.878V301.106C393.168 301.809 392.889 302.483 392.392 302.98C391.895 303.477 391.221 303.756 390.518 303.757V303.757Z" fill="#EADDCF"/>
<path d="M449.889 303.757H410.662C409.96 303.756 409.286 303.477 408.789 302.98C408.292 302.483 408.013 301.809 408.012 301.106V261.878C408.013 261.175 408.292 260.501 408.789 260.004C409.286 259.507 409.96 259.228 410.662 259.227H449.889C450.592 259.228 451.266 259.507 451.763 260.004C452.26 260.501 452.539 261.175 452.54 261.878V301.106C452.539 301.809 452.26 302.483 451.763 302.98C451.266 303.477 450.592 303.756 449.889 303.757V303.757Z" fill="#EADDCF"/>
<path d="M271.636 376.383H232.408C231.706 376.382 231.032 376.103 230.535 375.606C230.038 375.109 229.759 374.435 229.758 373.732V334.504C229.759 333.801 230.038 333.127 230.535 332.63C231.032 332.133 231.706 331.854 232.408 331.853H271.636C272.338 331.854 273.012 332.133 273.509 332.63C274.006 333.127 274.285 333.801 274.286 334.504V373.732C274.285 374.435 274.006 375.109 273.509 375.606C273.012 376.103 272.338 376.382 271.636 376.383V376.383Z" fill="#EADDCF"/>
<path d="M331.007 376.383H291.779C291.077 376.382 290.403 376.103 289.906 375.606C289.409 375.109 289.13 374.435 289.129 373.732V334.504C289.13 333.801 289.409 333.127 289.906 332.63C290.403 332.133 291.077 331.854 291.779 331.853H331.007C331.709 331.854 332.383 332.133 332.88 332.63C333.377 333.127 333.656 333.801 333.657 334.504V373.732C333.656 374.435 333.377 375.109 332.88 375.606C332.383 376.103 331.709 376.382 331.007 376.383Z" fill="#EADDCF"/>
<path d="M390.378 376.383H351.151C350.448 376.382 349.774 376.103 349.277 375.606C348.78 375.109 348.501 374.435 348.5 373.732V334.504C348.501 333.801 348.78 333.127 349.277 332.63C349.774 332.133 350.448 331.854 351.151 331.853H390.378C391.081 331.854 391.754 332.133 392.251 332.63C392.748 333.127 393.027 333.801 393.028 334.504V373.732C393.027 374.435 392.748 375.109 392.251 375.606C391.754 376.103 391.081 376.382 390.378 376.383Z" fill="#EADDCF"/>
<path d="M449.749 376.383H410.522C409.819 376.382 409.145 376.103 408.648 375.606C408.151 375.109 407.872 374.435 407.871 373.732V334.504C407.872 333.801 408.151 333.127 408.648 332.63C409.145 332.133 409.819 331.854 410.522 331.853H449.749C450.452 331.854 451.125 332.133 451.622 332.63C452.119 333.127 452.399 333.801 452.399 334.504V373.732C452.399 374.435 452.119 375.109 451.622 375.606C451.125 376.103 450.452 376.382 449.749 376.383V376.383Z" fill="#EADDCF"/>
<path d="M272.057 538.599H232.83C232.127 538.598 231.454 538.319 230.957 537.822C230.46 537.325 230.181 536.651 230.18 535.949V496.72C230.181 496.017 230.46 495.344 230.957 494.847C231.454 494.35 232.127 494.07 232.83 494.069H272.057C272.76 494.07 273.434 494.35 273.931 494.847C274.428 495.344 274.707 496.017 274.708 496.72V535.949C274.707 536.651 274.428 537.325 273.931 537.822C273.434 538.319 272.76 538.598 272.057 538.599Z" fill="#FFFFFE"/>
<path d="M331.429 538.599H292.201C291.499 538.598 290.825 538.319 290.328 537.822C289.831 537.325 289.552 536.651 289.551 535.949V496.72C289.552 496.017 289.831 495.343 290.328 494.847C290.825 494.35 291.499 494.07 292.201 494.069H331.429C332.131 494.07 332.805 494.35 333.302 494.847C333.799 495.343 334.078 496.017 334.079 496.72V535.949C334.078 536.651 333.799 537.325 333.302 537.822C332.805 538.319 332.131 538.598 331.429 538.599V538.599Z" fill="#FFFFFE"/>
<path d="M390.8 538.599H351.572C350.87 538.598 350.196 538.319 349.699 537.822C349.202 537.325 348.923 536.651 348.922 535.949V496.72C348.923 496.017 349.202 495.343 349.699 494.847C350.196 494.35 350.87 494.07 351.572 494.069H390.8C391.502 494.07 392.176 494.35 392.673 494.847C393.17 495.343 393.449 496.017 393.45 496.72V535.949C393.449 536.651 393.17 537.325 392.673 537.822C392.176 538.319 391.502 538.598 390.8 538.599V538.599Z" fill="#FFFFFE"/>
<path d="M450.171 538.599H410.943C410.241 538.598 409.567 538.319 409.07 537.822C408.573 537.325 408.294 536.651 408.293 535.949V496.72C408.294 496.017 408.573 495.344 409.07 494.847C409.567 494.35 410.241 494.07 410.943 494.069H450.171C450.873 494.07 451.547 494.35 452.044 494.847C452.541 495.344 452.82 496.017 452.821 496.72V535.949C452.82 536.651 452.541 537.325 452.044 537.822C451.547 538.319 450.873 538.598 450.171 538.599Z" fill="#FFFFFE"/>
<path d="M322.276 455.901C325.203 455.901 327.577 453.527 327.577 450.599C327.577 447.672 325.203 445.298 322.276 445.298C319.348 445.298 316.975 447.672 316.975 450.599C316.975 453.527 319.348 455.901 322.276 455.901Z" fill="#EADDCF"/>
<path d="M341.36 455.901C344.287 455.901 346.661 453.527 346.661 450.599C346.661 447.672 344.287 445.298 341.36 445.298C338.432 445.298 336.059 447.672 336.059 450.599C336.059 453.527 338.432 455.901 341.36 455.901Z" fill="#EADDCF"/>
<path d="M360.444 455.901C363.371 455.901 365.745 453.527 365.745 450.599C365.745 447.672 363.371 445.298 360.444 445.298C357.516 445.298 355.143 447.672 355.143 450.599C355.143 453.527 357.516 455.901 360.444 455.901Z" fill="#EADDCF"/>
<path d="M682.178 578.638H0.821901C0.60392 578.638 0.394865 578.552 0.240729 578.398C0.0865923 578.244 0 578.035 0 577.817C0 577.599 0.0865923 577.39 0.240729 577.235C0.394865 577.081 0.60392 576.995 0.821901 576.995H682.178C682.396 576.995 682.605 577.081 682.759 577.235C682.913 577.39 683 577.599 683 577.817C683 578.035 682.913 578.244 682.759 578.398C682.605 578.552 682.396 578.638 682.178 578.638Z" fill="#8C7851"/>
<path d="M268.239 416.802C269.348 415.693 270.2 414.355 270.736 412.882C271.272 411.408 271.478 409.835 271.34 408.273C271.202 406.711 270.724 405.198 269.938 403.841C269.152 402.484 268.079 401.316 266.793 400.419L277.145 363.737L258.271 369.74L251.334 403.654C249.97 405.914 249.483 408.596 249.964 411.192C250.446 413.787 251.863 416.116 253.946 417.737C256.03 419.358 258.636 420.158 261.27 419.985C263.905 419.813 266.384 418.68 268.239 416.802V416.802Z" fill="#FFD1B7"/>
<path d="M273.606 394.318C273.269 394.383 272.926 394.412 272.583 394.405L254.477 394.042C253.795 394.028 253.125 393.87 252.509 393.577C251.894 393.284 251.348 392.863 250.908 392.342C250.468 391.822 250.144 391.214 249.957 390.558C249.77 389.903 249.725 389.215 249.825 388.541L268.193 264.437C268.741 260.847 270.555 257.572 273.307 255.203C276.059 252.834 279.567 251.527 283.198 251.519C285.491 251.525 287.753 252.051 289.812 253.059C291.872 254.067 293.675 255.53 295.087 257.337C296.498 259.143 297.48 261.247 297.96 263.49C298.439 265.732 298.402 268.054 297.853 270.28L284.834 323.012L277.45 390.131C277.343 391.149 276.912 392.106 276.219 392.86C275.527 393.613 274.611 394.125 273.606 394.318V394.318Z" fill="#3F3D56"/>
<path d="M281.177 590.232H291.254L296.048 551.365L281.176 551.366L281.177 590.232Z" fill="#FFD1B7"/>
<path d="M278.607 586.942L298.451 586.941H298.452C301.806 586.942 305.023 588.274 307.394 590.646C309.766 593.017 311.098 596.234 311.098 599.588V599.999L278.608 600L278.607 586.942Z" fill="#020826"/>
<path d="M324.143 586.959L334.156 588.082L343.252 549.991L328.472 548.334L324.143 586.959Z" fill="#FFD1B7"/>
<path d="M321.955 583.403L341.675 585.614L341.676 585.614C345.009 585.988 348.057 587.671 350.149 590.292C352.242 592.913 353.207 596.258 352.834 599.592L352.788 600L320.5 596.38L321.955 583.403Z" fill="#020826"/>
<path d="M271.72 373.941C271.72 373.941 257.906 404.524 270.105 424.388L277.373 579.049H294.06L310.249 454.116L339.015 491.103L321.49 577.428L341.899 578.574L370.248 491.103C370.248 491.103 348.469 394.651 341.277 392.328L336.55 370.279L271.72 373.941Z" fill="#020826"/>
<path d="M265.57 400.791C265.57 400.791 253.125 415.074 286.001 420.006C318.877 424.938 353.397 417.54 354.219 407.677C355.041 397.814 265.57 400.791 265.57 400.791Z" fill="#FFFFFE"/>
<path d="M430.377 223.608C430.326 225.003 429.97 226.369 429.334 227.611C428.698 228.852 427.797 229.94 426.695 230.796C425.594 231.652 424.318 232.256 422.957 232.566C421.597 232.875 420.185 232.883 418.822 232.588L406.395 250.509L393.662 245.614L411.567 220.551C412.214 218.293 413.668 216.351 415.651 215.093C417.635 213.835 420.011 213.348 422.33 213.725C424.648 214.102 426.748 215.316 428.231 217.138C429.714 218.959 430.477 221.261 430.377 223.608V223.608Z" fill="#FFD1B7"/>
<path d="M325.278 246.667L307.708 238.718L285.196 240.327C285.196 240.327 258.057 272.059 268.741 302.47L262.166 408.499C304.083 420.006 323.137 398.424 353.397 407.677L344.05 289.838L325.278 246.667Z" fill="#3F3D56"/>
<path d="M313.535 254.387L325.278 246.667C325.278 246.667 341.59 244.201 348.11 250.527C348.11 250.527 370.241 252.379 375.586 257.904L381.471 259.231L401.022 233.914L412.985 240.414L395.725 287.264L344.051 289.838L313.535 254.387Z" fill="#3F3D56"/>
<path d="M317.587 229.801C331.028 222.453 335.967 205.601 328.62 192.16C321.273 178.719 304.421 173.779 290.981 181.127C277.54 188.474 272.601 205.327 279.948 218.768C287.295 232.209 304.147 237.148 317.587 229.801Z" fill="#FFD1B7"/>
<path d="M280.296 183.779C285.247 174.875 291.433 169.109 301.619 169.317C311.805 169.526 320.615 169.123 325.198 178.222C326.41 175.954 327.016 173.412 326.959 170.842C328.343 171.74 329.434 173.024 330.097 174.535C330.76 176.046 330.966 177.718 330.69 179.345C331.582 178.822 332.328 178.085 332.86 177.2C333.393 176.314 333.694 175.309 333.738 174.277C337.137 175.408 338.021 180.199 336.301 183.342C334.581 186.485 331.207 188.302 327.971 189.839C324.734 191.375 326.229 199.501 324.115 202.394C322.64 204.413 321.965 206.887 320.971 209.181C320.93 209.272 320.859 209.346 320.77 209.391C318.491 210.662 317.053 212.933 317.455 215.511C317.503 215.704 317.492 215.907 317.423 216.094C314.538 221.53 311.423 227.216 306.194 230.46C301.998 232.994 296.972 233.771 292.206 232.622C286.861 231.344 282.24 227.8 278.908 223.429C275.576 219.059 273.433 213.893 271.822 208.638C270.393 203.977 269.354 198.992 270.487 194.25C271.62 189.508 275.457 185.117 280.319 184.751" fill="#020826"/>
</g>
<defs>
<clipPath id="clip0">
<rect width="683" height="600" fill="white"/>
</clipPath>
</defs>
</svg>
